<?xml version="1.0" encoding="UTF-8"?>
<svg xmlns="http://www.w3.org/2000/svg" width="570" height="895" viewBox="0 0 570 895" font-family="Arial, sans-serif">
  <defs>
    <marker id="arr" markerWidth="9" markerHeight="6" refX="8" refY="3" orient="auto">
      <polygon points="0 0, 9 3, 0 6" fill="#000"/>
    </marker>
  </defs>
  <rect width="570" height="895" fill="white" stroke="#000" stroke-width="1.5"/>
  <circle cx="225" cy="38" r="11" fill="#000"/>
  <line x1="225" y1="49" x2="225" y2="71" stroke="#000" stroke-width="1.5" marker-end="url(#arr)"/>
  <rect x="115" y="71" width="220" height="46" rx="4" fill="white" stroke="#000" stroke-width="1.5"/>
  <text x="225" y="90.0" text-anchor="middle" font-size="13" fill="#000">Налаштування параметрів</text>
  <text x="225" y="106.0" text-anchor="middle" font-size="13" fill="#000">сесії (режим, тривалість)</text>
  <line x1="225" y1="117" x2="225" y2="139" stroke="#000" stroke-width="1.5" marker-end="url(#arr)"/>
  <rect x="115" y="139" width="220" height="46" rx="4" fill="white" stroke="#000" stroke-width="1.5"/>
  <text x="225" y="158.0" text-anchor="middle" font-size="13" fill="#000">Вибір звукового супроводу</text>
  <text x="225" y="174.0" text-anchor="middle" font-size="13" fill="#000">та фону</text>
  <line x1="225" y1="185" x2="225" y2="207" stroke="#000" stroke-width="1.5" marker-end="url(#arr)"/>
  <rect x="115" y="207" width="220" height="46" rx="4" fill="white" stroke="#000" stroke-width="1.5"/>
  <text x="225" y="234.0" text-anchor="middle" font-size="13" fill="#000">Запуск таймера</text>
  <line x1="225" y1="253" x2="225" y2="259" stroke="#000" stroke-width="1.5" marker-end="url(#arr)"/>
  <polygon points="225,259 343,297 225,335 107,297" fill="white" stroke="#000" stroke-width="1.5"/>
  <text x="225" y="293.5" text-anchor="middle" font-size="12" fill="#000">Режим</text>
  <text x="225" y="308.5" text-anchor="middle" font-size="12" fill="#000">Pomodoro?</text>
  <line x1="343" y1="297" x2="435" y2="297" stroke="#000" stroke-width="1.5"/>
  <text x="346" y="291" text-anchor="start" font-size="11" fill="#000">Так</text>
  <line x1="435" y1="297" x2="435" y2="342" stroke="#000" stroke-width="1.5" marker-end="url(#arr)"/>
  <rect x="359" y="342" width="152" height="46" rx="4" fill="white" stroke="#000" stroke-width="1.5"/>
  <text x="435" y="361.0" text-anchor="middle" font-size="13" fill="#000">Відлік робочого</text>
  <text x="435" y="377.0" text-anchor="middle" font-size="13" fill="#000">інтервалу (25 хв)</text>
  <line x1="435" y1="388" x2="435" y2="410" stroke="#000" stroke-width="1.5" marker-end="url(#arr)"/>
  <rect x="359" y="410" width="152" height="46" rx="4" fill="white" stroke="#000" stroke-width="1.5"/>
  <text x="435" y="429.0" text-anchor="middle" font-size="13" fill="#000">Сповіщення про</text>
  <text x="435" y="445.0" text-anchor="middle" font-size="13" fill="#000">початок перерви</text>
  <line x1="435" y1="456" x2="435" y2="478" stroke="#000" stroke-width="1.5" marker-end="url(#arr)"/>
  <rect x="359" y="478" width="152" height="46" rx="4" fill="white" stroke="#000" stroke-width="1.5"/>
  <text x="435" y="505.0" text-anchor="middle" font-size="13" fill="#000">Відлік перерви (5 хв)</text>
  <line x1="435" y1="524" x2="435" y2="569" stroke="#000" stroke-width="1.5"/>
  <line x1="435" y1="569" x2="225" y2="569" stroke="#000" stroke-width="1.5"/>
  <line x1="225" y1="335" x2="225" y2="357" stroke="#000" stroke-width="1.5" marker-end="url(#arr)"/>
  <text x="229" y="347" font-size="11" fill="#000">Ні</text>
  <rect x="115" y="357" width="220" height="46" rx="4" fill="white" stroke="#000" stroke-width="1.5"/>
  <text x="225" y="376.0" text-anchor="middle" font-size="13" fill="#000">Відлік довільного</text>
  <text x="225" y="392.0" text-anchor="middle" font-size="13" fill="#000">таймера</text>
  <line x1="225" y1="403" x2="225" y2="569" stroke="#000" stroke-width="1.5"/>
  <line x1="120" y1="569" x2="511" y2="569" stroke="#c00" stroke-width="3"/>
  <text x="315.5" y="564" text-anchor="middle" font-size="11" fill="#000">Join</text>
  <line x1="225" y1="569" x2="225" y2="591" stroke="#000" stroke-width="1.5" marker-end="url(#arr)"/>
  <line x1="225" y1="591" x2="225" y2="593" stroke="#000" stroke-width="1.5" marker-end="url(#arr)"/>
  <polygon points="225,593 343,631 225,669 107,631" fill="white" stroke="#000" stroke-width="1.5"/>
  <text x="225" y="627.5" text-anchor="middle" font-size="12" fill="#000">Сесію</text>
  <text x="225" y="642.5" text-anchor="middle" font-size="12" fill="#000">зупинено?</text>
  <line x1="107" y1="631" x2="46" y2="631" stroke="#000" stroke-width="1.5"/>
  <text x="44" y="625" text-anchor="end" font-size="11" fill="#000">Ні</text>
  <line x1="46" y1="631" x2="46" y2="230" stroke="#000" stroke-width="1.5"/>
  <line x1="46" y1="230" x2="115" y2="230" stroke="#000" stroke-width="1.5" marker-end="url(#arr)"/>
  <text x="48" y="223" text-anchor="start" font-size="10" fill="#000">Return</text>
  <line x1="225" y1="669" x2="225" y2="691" stroke="#000" stroke-width="1.5" marker-end="url(#arr)"/>
  <text x="229" y="681" font-size="11" fill="#000">Так</text>
  <rect x="115" y="691" width="220" height="46" rx="4" fill="white" stroke="#000" stroke-width="1.5"/>
  <text x="225" y="710.0" text-anchor="middle" font-size="13" fill="#000">Збереження статистики</text>
  <text x="225" y="726.0" text-anchor="middle" font-size="13" fill="#000">фокус-сесії</text>
  <line x1="225" y1="737" x2="225" y2="766" stroke="#000" stroke-width="1.5" marker-end="url(#arr)"/>
  <circle cx="225" cy="779" r="13" fill="white" stroke="#000" stroke-width="3"/>
  <circle cx="225" cy="779" r="7" fill="#000"/>
  <text x="285" y="887" text-anchor="middle" font-size="12" fill="#000">Рисунок X.3 – UML діаграма діяльності процесу роботи у кімнаті концентрації</text>
</svg>
